<svg width="36" height="34" viewBox="0 0 36 34" fill="none" xmlns="http://www.w3.org/2000/svg">
<path d="M32.9148 8.04196H22.1275L25.958 1.75695C26.2901 1.21206 26.1176 0.501093 25.5727 0.169027C25.0279 -0.163194 24.3168 0.00942503 23.9847 0.55432L19.4214 8.04196H16.5778L12.0145 0.55432C11.6824 0.00957907 10.9714 -0.162963 10.4265 0.169027C9.88165 0.50117 9.70911 1.21206 10.0413 1.75695L13.8717 8.04196H3.08425C1.68836 8.04196 0.552734 9.17758 0.552734 10.5734V31.4688C0.552734 32.8646 1.68836 34.0003 3.08425 34.0003H32.9149C34.3108 34.0003 35.4464 32.8646 35.4464 31.4688V10.5734C35.4463 9.17758 34.3107 8.04196 32.9148 8.04196ZM25.0227 28.4319C25.0227 29.1919 24.4066 29.808 23.6466 29.808H6.03619C5.27623 29.8079 4.66017 29.1919 4.66017 28.4319V13.6104C4.66017 12.8504 5.27623 12.2343 6.03627 12.2343H23.6466C24.4066 12.2343 25.0227 12.8504 25.0227 13.6104V28.4319ZM30.1154 27.9922C28.7988 27.9922 27.7275 26.9209 27.7275 25.6043C27.7275 24.2876 28.7988 23.2164 30.1154 23.2164C31.432 23.2164 32.5033 24.2876 32.5033 25.6043C32.5033 26.921 31.432 27.9922 30.1154 27.9922ZM30.1154 18.8259C28.7988 18.8259 27.7275 17.7547 27.7275 16.438C27.7275 15.1213 28.7988 14.0501 30.1154 14.0501C31.432 14.0501 32.5033 15.1213 32.5033 16.438C32.5033 17.7547 31.432 18.8259 30.1154 18.8259Z" fill="#5A6A90"/>
</svg>
